<?xml version="1.0" encoding="utf-8"?>
<!-- Generator: Adobe Illustrator 16.0.0, SVG Export Plug-In . SVG Version: 6.00 Build 0)  -->
<!DOCTYPE svg PUBLIC "-//W3C//DTD SVG 1.1 Basic//EN" "http://www.w3.org/Graphics/SVG/1.1/DTD/svg11-basic.dtd">
<svg version="1.1" baseProfile="basic" id="Vrstva_1"
	 xmlns="http://www.w3.org/2000/svg" xmlns:xlink="http://www.w3.org/1999/xlink" x="0px" y="0px" width="207.609px" height="40px"
	 viewBox="0 0 207.609 40" xml:space="preserve">
<g>
	<path style="fill:#74DCC4;" d="M85.272,32.895V8.302h10.252c1.085,0,2.078,0.225,2.979,0.675c0.9,0.45,1.685,1.051,2.355,1.801
		c0.669,0.75,1.189,1.593,1.559,2.528c0.369,0.935,0.554,1.888,0.554,2.857c0,1.34-0.3,2.615-0.9,3.828
		c-0.601,1.213-1.443,2.193-2.528,2.944c-1.086,0.751-2.355,1.126-3.81,1.126H88.39v8.832H85.272z M88.39,21.291h7.17
		c0.854,0,1.599-0.23,2.234-0.693c0.635-0.461,1.131-1.084,1.49-1.87c0.357-0.785,0.537-1.64,0.537-2.563
		c0-0.97-0.208-1.841-0.624-2.615c-0.416-0.773-0.958-1.38-1.628-1.818c-0.67-0.438-1.409-0.658-2.217-0.658H88.39V21.291z"/>
	<path style="fill:#74DCC4;" d="M122.057,32.895h-3.048V22.869c0-1.83-0.329-3.203-0.987-4.119s-1.599-1.374-2.823-1.374
		c-0.785,0-1.576,0.206-2.373,0.617c-0.796,0.411-1.495,0.964-2.095,1.66c-0.601,0.696-1.04,1.501-1.316,2.413v10.828h-3.048V7.609
		h3.048V18.8c0.715-1.283,1.691-2.297,2.927-3.042c1.235-0.745,2.569-1.118,4-1.118c1.085,0,1.992,0.189,2.719,0.567
		c0.728,0.378,1.31,0.911,1.749,1.599c0.438,0.688,0.756,1.484,0.953,2.389c0.196,0.906,0.294,1.896,0.294,2.974V32.895z"/>
	<path style="fill:#74DCC4;" d="M125.381,27.699c0-1.147,0.329-2.141,0.987-2.979s1.564-1.486,2.719-1.944
		c1.155-0.459,2.494-0.688,4.018-0.688c0.808,0,1.663,0.063,2.563,0.19c0.901,0.127,1.697,0.317,2.39,0.571v-1.309
		c0-1.365-0.416-2.442-1.247-3.228c-0.831-0.786-2.009-1.179-3.533-1.179c-0.993,0-1.946,0.179-2.858,0.537
		c-0.912,0.358-1.876,0.872-2.892,1.542l-1.108-2.147c1.178-0.808,2.355-1.414,3.533-1.818c1.178-0.404,2.401-0.606,3.671-0.606
		c2.309,0,4.133,0.635,5.473,1.906c1.339,1.271,2.009,3.039,2.009,5.305v7.589c0,0.366,0.075,0.636,0.226,0.808
		c0.15,0.172,0.398,0.269,0.745,0.291v2.355c-0.3,0.046-0.56,0.08-0.779,0.104c-0.22,0.023-0.398,0.035-0.537,0.035
		c-0.716,0-1.253-0.195-1.61-0.589c-0.358-0.393-0.561-0.808-0.606-1.247l-0.069-1.143c-0.785,1.016-1.813,1.801-3.083,2.355
		c-1.27,0.554-2.529,0.83-3.775,0.83c-1.201,0-2.275-0.246-3.221-0.739c-0.947-0.493-1.686-1.159-2.217-1.997
		C125.646,29.667,125.381,28.731,125.381,27.699z M137.158,28.966c0.277-0.319,0.496-0.646,0.658-0.978
		c0.162-0.331,0.243-0.611,0.243-0.84V24.92c-0.716-0.274-1.467-0.486-2.251-0.635c-0.785-0.148-1.559-0.223-2.321-0.223
		c-1.547,0-2.8,0.303-3.758,0.908c-0.958,0.605-1.438,1.435-1.438,2.486c0,0.571,0.156,1.127,0.467,1.663
		c0.312,0.538,0.773,0.978,1.386,1.321c0.611,0.342,1.368,0.514,2.269,0.514c0.947,0,1.847-0.188,2.702-0.566
		C135.968,30.012,136.65,29.537,137.158,28.966z"/>
	<path style="fill:#74DCC4;" d="M155.55,17.481c-1.524,0.023-2.87,0.41-4.035,1.16c-1.167,0.751-1.992,1.785-2.477,3.1v11.153
		h-3.048V14.918h2.84v4.087c0.624-1.247,1.449-2.257,2.477-3.031c1.027-0.773,2.107-1.206,3.239-1.299c0.23,0,0.427,0,0.589,0
		c0.161,0,0.3,0.012,0.416,0.035V17.481z"/>
	<path style="fill:#74DCC4;" d="M185.822,32.895h-3.047V22.869c0-1.875-0.307-3.26-0.918-4.153c-0.613-0.892-1.52-1.339-2.719-1.339
		c-1.225,0-2.334,0.44-3.326,1.322c-0.993,0.881-1.697,2.02-2.113,3.417v10.779h-3.048V22.869c0-1.898-0.301-3.289-0.901-4.17
		c-0.601-0.881-1.501-1.322-2.702-1.322c-1.201,0-2.303,0.428-3.308,1.284c-1.005,0.856-1.715,1.991-2.13,3.406v10.828h-3.048
		V14.918h2.771V18.8c0.739-1.329,1.697-2.354,2.875-3.077c1.178-0.722,2.505-1.083,3.983-1.083c1.501,0,2.702,0.407,3.602,1.221
		c0.901,0.814,1.455,1.862,1.663,3.146c0.808-1.421,1.79-2.504,2.945-3.249c1.154-0.745,2.469-1.118,3.947-1.118
		c1.039,0,1.91,0.189,2.615,0.567c0.705,0.378,1.264,0.905,1.68,1.582s0.717,1.472,0.9,2.389c0.186,0.917,0.277,1.913,0.277,2.99
		V32.895z"/>
	<path style="fill:#74DCC4;" d="M198.465,33.24c-1.362,0-2.598-0.246-3.706-0.738s-2.067-1.17-2.875-2.029
		c-0.809-0.859-1.432-1.85-1.87-2.974c-0.439-1.122-0.658-2.304-0.658-3.541c0-1.261,0.219-2.452,0.658-3.575
		c0.438-1.124,1.062-2.115,1.87-2.974c0.808-0.86,1.771-1.536,2.893-2.029c1.119-0.492,2.36-0.739,3.724-0.739
		c1.339,0,2.563,0.247,3.671,0.739c1.108,0.493,2.072,1.169,2.893,2.029c0.819,0.859,1.448,1.851,1.888,2.974
		c0.438,1.123,0.658,2.314,0.658,3.575c0,1.237-0.22,2.419-0.658,3.541c-0.439,1.124-1.063,2.114-1.87,2.974
		c-0.809,0.859-1.772,1.537-2.893,2.029S199.827,33.24,198.465,33.24z M192.473,23.992c0,1.234,0.271,2.354,0.814,3.359
		c0.542,1.006,1.264,1.801,2.164,2.383c0.9,0.583,1.905,0.874,3.014,0.874s2.118-0.297,3.031-0.892
		c0.911-0.594,1.639-1.399,2.182-2.416c0.542-1.018,0.814-2.143,0.814-3.377s-0.272-2.354-0.814-3.359
		c-0.543-1.006-1.271-1.806-2.182-2.4c-0.913-0.594-1.923-0.892-3.031-0.892s-2.113,0.303-3.014,0.909
		c-0.9,0.606-1.622,1.411-2.164,2.416C192.744,21.604,192.473,22.735,192.473,23.992z"/>
</g>
<linearGradient id="SVGID_1_" gradientUnits="userSpaceOnUse" x1="0" y1="20" x2="69.5" y2="20">
	<stop  offset="0" style="stop-color:#4597E9"/>
	<stop  offset="1" style="stop-color:#74DCC4"/>
</linearGradient>
<path style="fill:url(#SVGID_1_);" d="M49.5,0c-5.848,0-11.093,2.525-14.75,6.526C31.093,2.525,25.848,0,20,0C8.954,0,0,8.954,0,20
	c0,11.046,8.954,20,20,20c5.848,0,11.093-2.525,14.75-6.526C38.407,37.475,43.652,40,49.5,40c11.046,0,20-8.954,20-20
	C69.5,8.954,60.546,0,49.5,0z M20,29.651c-5.331,0-9.652-4.321-9.652-9.651c0-5.331,4.321-9.652,9.652-9.652
	c4.908,0,8.951,3.667,9.563,8.408C29.537,19.17,29.5,19.58,29.5,20s0.037,0.83,0.063,1.244C28.951,25.985,24.908,29.651,20,29.651z
	 M49.5,29.651c-4.908,0-8.951-3.666-9.563-8.407C39.963,20.83,40,20.42,40,20s-0.037-0.83-0.063-1.244
	c0.612-4.742,4.655-8.408,9.563-8.408c5.331,0,9.652,4.321,9.652,9.652C59.152,25.33,54.831,29.651,49.5,29.651z"/>
</svg>
