<svg width="0" height="0" class="hidden">
  <symbol xmlns="http://www.w3.org/2000/svg" viewBox="0 0 512 512" id="bowl">
    <path d="M474 190h-79.81l39.296-48.526a70.87 70.87 0 0057.737-20.373C504.621 107.702 512 89.887 512 70.939s-7.379-36.763-20.777-50.162C477.824 7.379 460.009 0 441.061 0s-36.763 7.379-50.162 20.777c-14.788 14.788-22.233 35.396-20.511 56.095L230.685 190H38c-20.953 0-38 17.047-38 38 0 15.976 9.915 29.671 23.91 35.28 1.276 41.843 13.721 82.356 36.201 117.587 21.965 34.424 52.494 62.389 88.556 81.213V502c0 5.523 4.477 10 10 10h194.667c5.523 0 10-4.477 10-10v-39.92c36.062-18.824 66.59-46.788 88.555-81.212 22.48-35.232 34.926-75.745 36.202-117.588C502.085 257.671 512 243.976 512 228c0-20.953-17.047-38-38-38zM387.29 88.921a9.999 9.999 0 003.567-9.439c-2.751-16.27 2.552-32.929 14.186-44.562 9.62-9.622 22.412-14.92 36.018-14.92s26.398 5.298 36.019 14.92C486.702 44.541 492 57.333 492 70.939s-5.298 26.398-14.92 36.019c-12.01 12.01-29.152 17.231-45.85 13.966a9.996 9.996 0 00-9.69 3.521L368.455 190h-105.99zM343.333 492H168.667v-26h174.667v26zM474 246H301.127c-5.523 0-10 4.477-10 10s4.477 10 10 10h166.849c-3.484 77.086-47.631 145.25-117.122 180H161.147C91.655 411.25 47.508 343.086 44.024 266h167.103c5.523 0 10-4.477 10-10s-4.477-10-10-10H38c-9.925 0-18-8.075-18-18s8.075-18 18-18h436c9.925 0 18 8.075 18 18s-8.075 18-18 18z"></path>
    <path d="M163.667 145h27.188c31.694 0 57.479-25.785 57.479-57.478V60.333c0-5.523-4.477-10-10-10h-27.188c-31.694 0-57.479 25.785-57.479 57.478V135c0 5.523 4.477 10 10 10zm10-37.188c0-20.666 16.813-37.478 37.479-37.478h17.188v17.188c0 20.666-16.813 37.478-37.479 37.478h-17.188zM79.752 93h26.582c5.523 0 10-4.477 10-10V56.418C116.333 25.309 91.024 0 59.915 0H33.333c-5.523 0-10 4.477-10 10v26.582C23.333 67.691 48.643 93 79.752 93zM43.333 20h16.582c20.081 0 36.418 16.337 36.418 36.418V73H79.752c-20.081 0-36.418-16.337-36.418-36.418V20zM73.93 133.93C72.07 135.79 71 138.37 71 141s1.07 5.21 2.93 7.07S78.37 151 81 151s5.21-1.07 7.07-2.93S91 143.63 91 141s-1.07-5.21-2.93-7.07S83.63 131 81 131s-5.21 1.07-7.07 2.93zm182.2 112.2c-2.63 0-5.21 1.06-7.07 2.93a10.058 10.058 0 00-2.93 7.07c0 2.63 1.07 5.21 2.93 7.07s4.44 2.93 7.07 2.93 5.21-1.07 7.07-2.93 2.93-4.44 2.93-7.07c0-2.64-1.07-5.21-2.93-7.07a10.033 10.033 0 00-7.07-2.93z"></path>
  </symbol>
  <symbol xmlns="http://www.w3.org/2000/svg" viewBox="0 0 51 51" id="chevron">
    <circle cx="25.5" cy="25.5" r="25.5" fill="#393939"></circle>
    <rect x="24.4" y="27.9" width="1.6" height="15.24" rx=".8" transform="rotate(-39 11.114 37.674)"></rect>
    <rect x="33.3" y="27.9" width="1.6" height="15.24" rx=".8" transform="rotate(37.3 44.444 24.605)"></rect>
  </symbol>
  <symbol xmlns="http://www.w3.org/2000/svg" viewBox="0 0 512 512" id="leaves">
    <path d="M395.41 263.035a170.702 170.702 0 00-13.578-7.034 170.28 170.28 0 0013.578-7.035c42.26-24.398 71.776-65.439 83.113-115.561a7.5 7.5 0 00-5.091-8.817c-49.075-15.243-99.375-10.201-141.635 14.197a170.011 170.011 0 00-12.879 8.24c.455-5.061.695-10.154.695-15.275 0-48.797-20.784-94.879-58.522-129.758a7.5 7.5 0 00-10.181 0c-37.739 34.878-58.522 80.96-58.522 129.758 0 5.128.243 10.223.698 15.281a170.14 170.14 0 00-12.882-8.246c-42.259-24.398-92.56-29.441-141.635-14.197a7.5 7.5 0 00-5.091 8.817c11.336 50.122 40.853 91.163 83.113 115.561a170.32 170.32 0 0013.57 7.039 171.006 171.006 0 00-13.57 7.03c-42.26 24.398-71.776 65.439-83.113 115.561a7.5 7.5 0 005.091 8.817c18.601 5.777 37.375 8.641 55.824 8.641 30.225 0 59.569-7.687 85.811-22.838a170.864 170.864 0 0012.885-8.243c-.458 5.077-.7 10.179-.7 15.278 0 48.797 20.784 94.879 58.522 129.758 1.437 1.328 3.264 1.992 5.09 1.992s3.653-.664 5.09-1.992c37.739-34.878 58.522-80.96 58.522-129.758 0-5.1-.243-10.202-.701-15.28a170.565 170.565 0 0012.886 8.246c26.245 15.152 55.583 22.839 85.811 22.838 18.445 0 37.226-2.864 55.824-8.641a7.5 7.5 0 005.091-8.817c-11.337-50.123-40.854-91.164-83.114-115.562zm-33.979-14.937c-20.407-6.419-41.937-8.939-63.774-7.488l35.766-20.649L389.552 235c-.547.325-1.089.657-1.641.976a154.966 154.966 0 01-26.48 12.122zm100.773-111.149c-9.479 35.497-29.067 65.578-56.331 86.895l-54.078-14.49 54.126-31.25a7.496 7.496 0 002.745-10.245 7.5 7.5 0 00-10.245-2.745l-54.126 31.25 14.49-54.079c32.092-12.954 67.936-14.878 103.419-5.336zM256 17.897c31.406 31.352 48.613 71.521 48.613 113.853 0 20.342-3.955 40.24-11.754 59.139a7.5 7.5 0 1013.865 5.723 170.811 170.811 0 008.833-27.963 154.825 154.825 0 0123.741-16.874c.552-.319 1.11-.622 1.666-.934l-15.04 56.128L263.5 243.01V87.216a7.5 7.5 0 00-15 0v150.422c-26.631-30.053-41.113-67.06-41.113-105.888 0-42.333 17.207-82.501 48.613-113.853zm-59.557 150.76c4.645 20.878 13.226 40.78 25.399 58.961l-35.765-20.649-15.04-56.128c.555.311 1.113.615 1.665.933a154.909 154.909 0 0123.741 16.883zM49.796 136.948c35.482-9.54 71.326-7.616 103.419 5.337l14.49 54.078-54.127-31.25a7.5 7.5 0 00-11.251 6.486 7.5 7.5 0 003.751 6.504l54.126 31.25-54.078 14.49c-27.263-21.316-46.851-51.397-56.33-86.895zm74.294 99.027c-.552-.319-1.094-.651-1.641-.976l56.128-15.04 35.766 20.649c-21.868-1.453-43.43 1.076-63.864 7.516-8.751-3.119-18.307-7.483-26.389-12.149zm106.793 92.397a7.5 7.5 0 10-11.971-9.039c-12.625 16.72-28.171 30.478-46.21 40.893-36.661 21.166-80.051 26.35-122.906 14.826 11.448-42.874 37.632-77.86 74.293-99.026 33.625-19.414 72.915-25.376 112.258-17.339l-130.269 75.211a7.496 7.496 0 00-2.745 10.245 7.5 7.5 0 0010.245 2.745L248.5 268.99v72.081l-41.089 41.089c-.008-.636-.024-1.272-.024-1.909 0-9.741.933-19.493 2.753-29.015a170.89 170.89 0 0020.743-22.864zM256 494.103c-26.003-25.958-42.26-57.962-47.088-92.231l39.588-39.588v62.5a7.5 7.5 0 0015 0v-62.5l39.588 39.588c-4.828 34.269-21.085 66.274-47.088 92.231zm48.613-113.853c0 .637-.016 1.273-.024 1.909L263.5 341.071v-41.298c9.659 19.631 22.603 37.013 38.36 51.474a154.828 154.828 0 012.753 29.003zm113.028.792c-27.632-.001-54.424-7.007-78.344-20.817-33.625-19.413-58.427-50.457-71.138-88.545l130.262 75.207a7.499 7.499 0 0010.245-2.745 7.5 7.5 0 00-2.745-10.245L275.659 258.69c39.341-8.034 78.626-2.078 112.251 17.335 36.661 21.167 62.845 56.152 74.293 99.027-14.894 4.004-29.843 5.99-44.562 5.99z"></path>
  </symbol>
  <symbol xmlns="http://www.w3.org/2000/svg" viewBox="0 0 50 2" id="line">
    <path fill="#63c3ef" d="M0 0h50v2H0z"></path>
  </symbol>
  <symbol xmlns="http://www.w3.org/2000/svg" viewBox="0 0 24 24" id="menu">
    <path d="M21.5 24h-19A2.503 2.503 0 010 21.5v-19C0 1.122 1.121 0 2.5 0h19C22.879 0 24 1.122 24 2.5v19c0 1.378-1.121 2.5-2.5 2.5zM2.5 1C1.673 1 1 1.673 1 2.5v19c0 .827.673 1.5 1.5 1.5h19c.827 0 1.5-.673 1.5-1.5v-19c0-.827-.673-1.5-1.5-1.5z"></path>
    <path d="M16.5 8h-9a.5.5 0 010-1h9a.5.5 0 010 1zm0 4.5h-9a.5.5 0 010-1h9a.5.5 0 010 1zm0 4.5h-9a.5.5 0 010-1h9a.5.5 0 010 1z"></path>
  </symbol>
  <symbol xmlns="http://www.w3.org/2000/svg" viewBox="0 0 508.044 508.044" id="quotes">
    <path d="M.108 352.536c0 66.794 54.144 120.938 120.937 120.938 66.794 0 120.938-54.144 120.938-120.938s-54.144-120.937-120.938-120.937c-13.727 0-26.867 2.393-39.168 6.61C109.093 82.118 230.814-18.543 117.979 64.303-7.138 156.17-.026 348.84.114 352.371c0 .055-.006.104-.006.165zm266.061 0c0 66.794 54.144 120.938 120.938 120.938s120.938-54.144 120.938-120.938S453.9 231.599 387.106 231.599c-13.728 0-26.867 2.393-39.168 6.61C375.154 82.118 496.875-18.543 384.04 64.303 258.923 156.17 266.034 348.84 266.175 352.371c0 .055-.006.104-.006.165z"></path>
  </symbol>
  <symbol xmlns="http://www.w3.org/2000/svg" viewBox="0 0 21.8 23.8" id="search">
    <path d="M.1 8.6a8.7 8.7 0 00.8 4.8 1 1 0 001.2.4.8.8 0 00.4-1.2 8.3 8.3 0 01-.7-3.8A7.62 7.62 0 0117 9.9a7.7 7.7 0 01-11.8 5.8.8.8 0 00-1.2.2.9.9 0 00.2 1.3 10 10 0 004.5 1.5 9.3 9.3 0 006.1-1.7l5.5 6.4a.9.9 0 00.6.3.7.7 0 00.7-.2.9.9 0 00.1-1.2l-5.6-6.4a8.9 8.9 0 002.6-5.8A9.33 9.33 0 10.1 8.6z" fill="#ecf6fc"></path>
  </symbol>
  <symbol xmlns="http://www.w3.org/2000/svg" viewBox="0 0 60 60" id="therapy">
    <path d="M3 60h5a2.985 2.985 0 002.22-1H35.3a7.985 7.985 0 004.159-1.167L58.2 46.424a3.743 3.743 0 00-3.131-6.748C34.221 46.627 36.556 46 35.039 46c1.212-3.362-1.819-7-5.607-7H24.2a8.152 8.152 0 01-5.076-1.781A10.165 10.165 0 0012.8 35h-1.984A3 3 0 008 33H3a3 3 0 00-3 3v21a3 3 0 003 3zm14.875-21.219A10.165 10.165 0 0024.2 41h5.231c2.653 0 4.956 2.873 3.37 5h-6.076a9.966 9.966 0 00-5.547 1.68l-.733.488a1 1 0 001.11 1.664A8.457 8.457 0 0126.725 48c9.508 0 9.427.09 10.47-.256l18.511-6.171a1.742 1.742 0 012.262 1.986c-.09.482-.38.902-.8 1.156L38.42 56.125A6 6 0 0135.3 57H11V37c2.272 0 4.43-.175 6.875 1.781zM2 36a1 1 0 011-1h5a1 1 0 011 1v21a1 1 0 01-1 1H3a1 1 0 01-1-1zM57.7.017c-.532.031-13.21.85-18.928 9.083A19.339 19.339 0 0035.63 19a16.656 16.656 0 00-5.212-6.232C23.046 7.638 12.161 10.91 11.7 11.05a1 1 0 00-.7 1.013c.027.48.76 11.822 8.133 16.944A18.272 18.272 0 0029.6 31.875a30.722 30.722 0 008.255-1.163h.024c.537-.031 13.215-.85 18.932-9.08s2.063-20.4 1.905-20.91A.992.992 0 0057.7.017zM20.271 27.364c-5.511-3.829-6.893-12.015-7.2-14.61 2.54-.619 10.694-2.179 16.2 1.649 4.106 2.853 6.186 8.346 7 13.258l-5.932-4.122.067-3.472a1 1 0 00-2-.038l-.041 2.138-2.589-1.8.066-3.473a1 1 0 00-.982-1.019.986.986 0 00-1.018.981L23.81 19l-4.855-3.373a1 1 0 10-1.141 1.642l4.855 3.373-1.99.784a1 1 0 10.734 1.861l3.23-1.274 2.589 1.8-1.99.784a1 1 0 00.735 1.861l3.229-1.274 5.933 4.116c-3.381.657-10.106 1.372-14.868-1.936zm34.9-6.874c-3.832 5.516-11.511 7.372-15.255 7.964l4.832-6.954c.969.019 4.086.076 3.983.076a1 1 0 00.02-2l-2.631-.05 2.189-3.15c.969.018 4.085.076 3.982.076a1 1 0 00.02-2L49.68 14.4l3.92-5.639a1 1 0 00-1.643-1.142l-3.918 5.64-.965-2.447a1 1 0 10-1.861.733l1.454 3.688-2.189 3.15-.964-2.447a1 1 0 00-1.862.733l1.454 3.689-4.832 6.954c-.75-3.715-1.69-11.558 2.142-17.074 4.383-6.308 13.8-7.829 16.6-8.148.684 2.739 2.546 12.08-1.845 18.4z"></path>
  </symbol>
  <symbol xmlns="http://www.w3.org/2000/svg" viewBox="0 0 16 11" id="tick">
    <path d="M2 4l4 4 8-8" fill="none" stroke="#2dd5a7" stroke-width="2"></path>
  </symbol>
</svg>